# xmcd
#
# Track frame offsets:
#	150
#	13657
#	30282
#	46575
#	60085
#	75110
#	86997
#	101322
#	115285
#	132767
#	146700
#	162470
#	177002
#	193880
#	205240
#
# Disc length: 2954 seconds
#
# Revision: 1
# Processed by: cddbd v1.5.2PL0 Copyright (c) Steve Scherf et al.
# Submitted via: audiograbber 1.83.01
#
DISCID=b50b880f
DTITLE=Diversen - Truckers Jukebox CD-1
DYEAR=1997
DGENRE=country
TTITLE0=Patsy Cline - She's got you
TTITLE1=Waylon Jennings - Rose in Paradise
TTITLE2=Lee Green wood - Somebody's gonna love you
TTITLE3=Tanya Tucker - Here's some love
TTITLE4=Conway Twitty - I'd just love to lay you down
TTITLE5=Brenda Lee - I'm sorry
TTITLE6=Marty Stuart - Little things
TTITLE7=Steve Wariner - Lynda
TTITLE8=Barbara Mandrell - Years
TTITLE9=Mark Chesnutt - Brothet Jukebox
TTITLE10=George Jones - Don't need your rocking chair
TTITLE11=Gene watson - This dream's on me
TTITLE12=Ray Stevens - Mississippi squirrel revival
TTITLE13=Conway Twitty and Loretta Lynn - Louisiana woman, Mississippi man
TTITLE14=Oak Ridge Boys - Fancy free
EXTD=
EXTT0=
EXTT1=
EXTT2=
EXTT3=
EXTT4=
EXTT5=
EXTT6=
EXTT7=
EXTT8=
EXTT9=
EXTT10=
EXTT11=
EXTT12=
EXTT13=
EXTT14=
PLAYORDER=
